<?xml version="1.0" encoding="utf-8"?>
<!-- Generator: Adobe Illustrator 21.0.2, SVG Export Plug-In . SVG Version: 6.00 Build 0)  -->
<svg version="1.1" id="Слой_1" xmlns="http://www.w3.org/2000/svg" xmlns:xlink="http://www.w3.org/1999/xlink" x="0px" y="0px"
	 width="33px" height="33px" viewBox="0 0 33 33" style="enable-background:new 0 0 33 33;" xml:space="preserve">
<style type="text/css">
	.st0{fill:#50ABF1;}
	.st1{fill:#FFFFFF;}
</style>
<g>
	<rect class="st0" width="33" height="33"/>
	<path class="st1" d="M4.4,24.5c2.2,1.4,4.8,2.2,7.6,2.2c7.8,0,14.2-6.4,14.2-14.2c0-0.2,0-0.4,0-0.6c0.3-0.2,2-1.6,2.5-2.5
		c0,0-1.4,0.6-2.8,0.7c0,0,0,0,0,0c0,0,0,0,0,0c0.1-0.1,1.9-1.3,2.2-2.8c0,0-1,0.5-2.4,1c-0.2,0.1-0.5,0.2-0.7,0.2
		c-0.9-1-2.2-1.6-3.6-1.6c-2.8,0-5,2.2-5,5c0,0.4,0,0.8,0.1,1.1c-0.4,0-6.2-0.3-10.2-5.2c0,0-2.4,3.3,1.4,6.6c0,0-1.2,0-2.2-0.6
		c0,0-0.4,3.9,3.9,4.9c0,0-0.8,0.3-2.2,0.1c0,0,0.8,3.2,4.6,3.5C11.7,22.4,8.7,25.1,4.4,24.5L4.4,24.5z M4.4,24.5"/>
</g>
</svg>
