<?xml version="1.0" encoding="utf-8"?>
<!-- Generator: Adobe Illustrator 21.0.2, SVG Export Plug-In . SVG Version: 6.00 Build 0)  -->
<svg version="1.1" id="Слой_1" xmlns="http://www.w3.org/2000/svg" xmlns:xlink="http://www.w3.org/1999/xlink" x="0px" y="0px"
	 width="33px" height="33px" viewBox="0 0 33 33" style="enable-background:new 0 0 33 33;" xml:space="preserve">
<style type="text/css">
	.st0{fill:#44678D;}
	.st1{fill:#FFFFFF;}
</style>
<g>
	<rect class="st0" width="33" height="33"/>
	<path class="st1" d="M8.5,10c0.8,2,1.8,3.8,3.1,5.4c0.2,0.2,0.4,0.4,0.6,0.6c0.3,0.2,0.7,0.2,0.8-0.2c0.1-0.4,0.3-1.2,0.3-1.7
		c0-1.1,0-1.9-0.1-3c0-0.7-0.3-1.3-1.3-1.5c-0.3-0.1-0.4-0.3-0.1-0.6c0.4-0.6,1-0.6,1.7-0.7c1.1-0.1,2.1,0,3.2,0
		c0.4,0,0.9,0,1.3,0.1C18.6,8.6,18.9,9,19,9.6c0,0.3,0.1,0.6,0.1,0.9c0,1.2-0.1,2.4-0.1,3.7c0,0.5,0,1,0.1,1.4
		c0.1,0.6,0.6,0.8,1,0.3c0.6-0.6,1.1-1.3,1.6-1.9c0.9-1.2,1.5-2.6,2.1-4C24,9.2,24.2,9,25,9c1.5,0,2.9,0,4.4,0c0.3,0,0.5,0,0.8,0.1
		c0.4,0.1,0.6,0.5,0.5,0.9c-0.2,1-0.7,1.8-1.3,2.6c-0.9,1.3-1.8,2.5-2.8,3.7c-0.1,0.2-0.2,0.3-0.3,0.5c-0.3,0.6-0.3,1,0.2,1.5
		c0.8,0.8,1.6,1.6,2.4,2.4c0.6,0.6,1.1,1.3,1.5,2c0.6,0.9,0.2,1.7-0.8,1.9c-0.7,0.1-3.9,0-4.1,0c-0.9,0-1.6-0.3-2.2-0.9
		c-0.7-0.7-1.3-1.4-2-2.1c-0.2-0.2-0.4-0.4-0.6-0.6c-0.5-0.4-1.1-0.3-1.3,0.3c-0.2,0.5-0.4,2-0.4,2.1c0,0.6-0.4,1-1.2,1.1
		c-2,0.1-4-0.1-5.9-1.1c-1.6-0.8-2.8-2-3.9-3.4c-1.7-2.2-3.1-4.6-4.3-7.1c-0.1-0.1-1.3-2.8-1.4-2.9c-0.1-0.4,0-0.8,0.3-1
		C3,9,7.1,9,7.2,9C7.8,9.1,8.3,9.4,8.5,10L8.5,10z M8.5,10"/>
</g>
</svg>
