<?xml version="1.0" encoding="utf-8"?>
<!-- Generator: Adobe Illustrator 21.0.2, SVG Export Plug-In . SVG Version: 6.00 Build 0)  -->
<svg version="1.1" id="Слой_1" xmlns="http://www.w3.org/2000/svg" xmlns:xlink="http://www.w3.org/1999/xlink" x="0px" y="0px"
	 width="33px" height="33px" viewBox="0 0 33 33" style="enable-background:new 0 0 33 33;" xml:space="preserve">
<style type="text/css">
	.st0{fill:#DD4B39;}
</style>
<g>
	<path class="st0" d="M0,0v33h33V0H0z M19.2,17.9c-0.6,3.7-3.3,5.8-6.9,5.8c-4,0-7.3-3.3-7.3-7.3c0-4,3.3-7.3,7.3-7.3
		c1.9,0,3.6,0.7,4.9,1.9l-2.1,2.1c-0.7-0.7-1.7-1.1-2.8-1.1c-2.4,0-4.3,2-4.3,4.4c0,2.4,1.9,4.3,4.3,4.3c2,0,3.5-1,3.9-2.9h-3.9V15
		h6.9c0.1,0.5,0.1,1,0.1,1.5C19.3,16.9,19.3,17.4,19.2,17.9L19.2,17.9z M28,17h-2.6v2.6h-1.8V17h-2.6v-1.8h2.6v-2.6h1.8v2.6H28V17z
		 M28,17"/>
</g>
</svg>
