<svg xmlns="http://www.w3.org/2000/svg" width="17" height="15" xmlns:xlink="http://www.w3.org/1999/xlink"><style type="text/css">.st0{clip-path:url(#SVGID_2_);fill:#FFFFFF;} .st1{clip-path:url(#SVGID_4_);fill:#FFFFFF;}</style><defs><path id="SVGID_1_" d="M0 0h17v15H0z"/></defs><clipPath id="SVGID_2_"><use xlink:href="#SVGID_1_" overflow="visible"/></clipPath><path d="M14.2 11.5c-.2-.2-.6-.1-.8.1l-.1.1c-.5.7-1.3 1.2-2.2 1.6-1.4.7-3.1.8-4.7.3-1.4-.5-2.5-1.4-3.4-2.7-.6-1-1-2.1-1-3.3v-.1h.7c.3 0 .4-.3.2-.5L1.7 5.9c-.1-.1-.3-.1-.4 0L.1 7.1c-.2.2-.1.5.2.5H1c0 1.4.4 2.7 1.2 3.9 1 1.5 2.3 2.5 4 3.1.7.2 1.5.4 2.3.4 1.1 0 2.1-.2 3.1-.7 1.1-.5 2-1.2 2.7-2.1.2-.2.2-.6-.1-.7z" class="st0"/><defs><path id="SVGID_3_" d="M0 0h17v15H0z"/></defs><clipPath id="SVGID_4_"><use xlink:href="#SVGID_3_" overflow="visible"/></clipPath><path d="M16.7 7.5H16c0-.1 0-.3 0-.4-.1-1.2-.4-2.3-1-3.3S13.6 2 12.7 1.3C11.7.7 10.6.2 9.4.1 8.1-.1 6.8.1 5.6.6s-2.2 1.2-3 2.2c-.2.2-.1.6.1.8.2.2.6.2.8-.1l.1-.1C4.3 2.6 5.1 2 6 1.6c1-.4 2.1-.6 3.2-.4 1 .1 2 .5 2.8 1s1.5 1.3 2 2.1c.5.9.8 1.8.9 2.8 0 .1 0 .1 0 .2s0 .1 0 .2h-.7c-.3 0-.4.3-.2.5l1.2 1.2c.1.1.3.1.4 0L16.9 8c.2-.2 0-.5-.2-.5z" class="st1"/></svg>